HIERARCHY
ROOT root
{
	OFFSET 0.000000 0.000000 0.000000
	CHANNELS 6 Xposition Yposition Zposition Zrotation Yrotation Xrotation
	JOINT lhip
	{
		OFFSET 0.058581 -0.082280 -0.017664
		CHANNELS 3 Zrotation Yrotation Xrotation
		JOINT lknee
		{
			OFFSET 0.043451 -0.386469 0.008037
			CHANNELS 3 Zrotation Yrotation Xrotation
			JOINT lankle
			{
				OFFSET -0.014790 -0.426874 -0.037428
				CHANNELS 3 Zrotation Yrotation Xrotation
				JOINT ltoe
				{
					OFFSET 0.041054 -0.060286 0.122042
					CHANNELS 3 Zrotation Yrotation Xrotation
					End Site
					{
						OFFSET 0.000000 0.000000 0.000000
					}
				}
			}
		}
	}
	JOINT rhip
	{
		OFFSET -0.060310 -0.090513 -0.013543
		CHANNELS 3 Zrotation Yrotation Xrotation
		JOINT rknee
		{
			OFFSET -0.043257 -0.383688 -0.004843
			CHANNELS 3 Zrotation Yrotation Xrotation
			JOINT rankle
			{
				OFFSET 0.019056 -0.420046 -0.034562
				CHANNELS 3 Zrotation Yrotation Xrotation
				JOINT rtoe
				{
					OFFSET -0.034840 -0.062106 0.130323
					CHANNELS 3 Zrotation Yrotation Xrotation
					End Site
					{
						OFFSET 0.000000 0.000000 0.000000
					}
				}
			}
		}
	}
	JOINT lowerback
	{
		OFFSET 0.004439 0.124404 -0.038385
		CHANNELS 3 Zrotation Yrotation Xrotation
		JOINT upperback
		{
			OFFSET 0.004488 0.137956 0.026820
			CHANNELS 3 Zrotation Yrotation Xrotation
			JOINT chest
			{
				OFFSET -0.002265 0.056032 0.002855
				CHANNELS 3 Zrotation Yrotation Xrotation
				JOINT lowerneck
				{
					OFFSET -0.013390 0.211636 -0.033468
					CHANNELS 3 Zrotation Yrotation Xrotation
					JOINT upperneck
					{
						OFFSET 0.010113 0.088937 0.050410
						CHANNELS 3 Zrotation Yrotation Xrotation
						End Site
						{
							OFFSET 0.000000 0.000000 0.000000
						}
					}
				}
				JOINT lclavicle
				{
					OFFSET 0.071702 0.114000 -0.018898
					CHANNELS 3 Zrotation Yrotation Xrotation
					JOINT lshoulder
					{
						OFFSET 0.122921 0.045205 -0.019046
						CHANNELS 3 Zrotation Yrotation Xrotation
						JOINT lelbow
						{
							OFFSET 0.255332 -0.015649 -0.022946
							CHANNELS 3 Zrotation Yrotation Xrotation
							JOINT lwrist
							{
								OFFSET 0.265709 0.012698 -0.007375
								CHANNELS 3 Zrotation Yrotation Xrotation
								End Site
								{
									OFFSET 0.000000 0.000000 0.000000
								}
							}
						}
					}
				}
				JOINT rclavicle
				{
					OFFSET -0.082954 0.112472 -0.023707
					CHANNELS 3 Zrotation Yrotation Xrotation
					JOINT rshoulder
					{
						OFFSET -0.113228 0.046853 -0.008472
						CHANNELS 3 Zrotation Yrotation Xrotation
						JOINT relbow
						{
							OFFSET -0.260127 -0.014369 -0.031269
							CHANNELS 3 Zrotation Yrotation Xrotation
							JOINT rwrist
							{
								OFFSET -0.269108 0.006794 -0.006027
								CHANNELS 3 Zrotation Yrotation Xrotation
								End Site
								{
									OFFSET 0.000000 0.000000 0.000000
								}
							}
						}
					}
				}
			}
		}
	}
}
MOTION
Frames: 17
Frame Time: 0.033333
0.077785 -0.200081 0.986798 127.759722 1.167213 87.955404 2.564489 5.624237 0.971285 -2.159018 5.876993 1.656533 5.210484 13.372869 -8.765930 0.000000 -0.000000 0.000000 -8.975452 -6.586703 4.190168 -2.613487 -5.571805 19.150509 7.401495 -7.644004 -6.268948 0.000000 -0.000000 0.000000 -2.276351 3.215279 3.744207 0.444784 -2.428812 8.218626 -1.779722 -0.209650 -3.682658 1.920206 0.732896 2.167388 0.809825 -1.436163 17.205011 -32.357669 0.163351 -3.298297 -48.113792 -8.190758 13.379969 7.180023 -27.857668 5.011274 -0.232389 -6.774391 10.000901 33.918706 -2.015639 4.433022 47.509579 1.143334 12.875815 -10.049576 21.193896 0.418977 2.827688 5.387470 14.782903 
0.074392 -0.189028 0.986248 131.161747 1.183991 87.961250 2.058194 4.526643 0.644254 -2.521743 4.131772 2.228680 5.253222 13.056173 -9.469999 0.000000 -0.000000 0.000000 -9.205249 -6.530073 3.583803 -3.106269 -6.322662 22.183067 8.277713 -8.929318 -5.449303 0.000000 -0.000000 0.000000 -2.091093 3.462277 3.702014 0.441742 -2.191574 9.014576 -1.750015 0.094093 -3.457947 2.061635 1.472013 2.464878 1.190148 -0.601370 18.039248 -32.254284 -0.057466 -3.289447 -48.319828 -8.563325 13.470569 7.018074 -29.482497 4.914931 0.182780 -6.661599 9.789636 33.680688 -2.125082 4.963707 47.644598 1.102667 12.601445 -10.606400 21.925829 -0.725139 2.978190 5.617456 14.373182 
0.070144 -0.177309 0.985964 133.554389 0.818384 88.215488 0.915213 3.910730 0.294238 -2.577402 2.757644 2.519390 5.585901 12.847733 -9.875217 0.000000 -0.000000 0.000000 -9.777580 -6.357263 1.654578 -4.087706 -6.192347 26.360928 8.768702 -9.484576 -4.094847 0.000000 -0.000000 0.000000 -2.233961 3.969128 3.533232 0.656642 -1.689854 9.964660 -2.121049 0.376697 -4.064729 2.442591 2.326642 3.922001 1.429459 0.103124 18.296381 -32.448254 0.495204 -4.005631 -48.416467 -8.412738 14.118566 7.138238 -30.101440 4.113228 0.013902 -7.089877 10.864609 33.937974 -2.244980 4.193925 47.491857 -0.069766 12.813328 -11.350000 22.855723 -2.199396 2.425582 6.484017 15.008659 
0.067015 -0.161435 0.985068 137.186174 0.341172 88.147765 -0.347395 2.607079 0.930028 -2.824397 0.827258 2.176879 6.479110 12.491799 -10.215386 0.000000 -0.000000 0.000000 -10.274238 -5.929815 -0.375645 -5.538284 -6.071554 32.111061 8.953354 -10.419329 -1.304680 0.000000 -0.000000 0.000000 -2.703604 4.033637 2.847096 0.908083 -1.107912 11.683152 -2.343418 0.733530 -4.251173 2.838600 3.090999 5.278482 2.020597 1.064504 19.002031 -32.445073 0.741974 -4.203676 -48.607628 -8.348102 14.382965 7.554138 -30.305918 3.111471 -0.205377 -7.253277 11.582853 33.363545 -2.381736 4.768193 48.051698 0.144519 12.718791 -11.879688 23.864241 -3.384537 2.277162 7.254904 14.907449 
0.065507 -0.152548 0.984975 139.068356 0.208086 87.697330 -1.039418 2.032008 1.821720 -2.742309 -0.432847 1.876688 7.110782 12.625164 -10.206608 0.000000 -0.000000 0.000000 -10.218116 -5.122659 -1.701703 -6.314818 -5.550511 36.062766 8.615049 -11.057269 0.990081 0.000000 -0.000000 0.000000 -2.891030 3.851723 3.270357 0.962097 -0.684742 11.985071 -2.369454 1.239238 -4.356853 2.865773 2.882971 6.562397 2.538605 2.294692 19.449286 -32.041858 0.669145 -4.152524 -48.878249 -7.730029 14.863967 8.024792 -30.245757 2.152101 -0.208207 -6.980771 11.406980 33.159846 -2.452297 5.321604 48.031823 0.394123 12.910768 -12.267917 24.674040 -4.048368 2.445333 7.256990 14.476350 
0.062880 -0.141005 0.985291 141.876687 0.075800 87.183323 -1.870973 1.350507 2.692437 -2.626941 -2.731827 1.959895 7.721476 13.213226 -10.179152 0.000000 -0.000000 0.000000 -9.866309 -4.252074 -3.943213 -6.856555 -4.446398 41.656204 7.359276 -12.898205 4.047948 0.000000 -0.000000 0.000000 -2.438255 3.445354 4.324120 0.453716 -0.164016 11.526253 -3.126290 1.579896 -3.714521 2.974694 2.475623 8.750230 3.666492 4.271988 18.495391 -31.089668 1.401704 -3.945928 -49.538082 -8.165490 15.235904 9.094404 -29.078453 1.569117 -2.350392 -7.163469 11.557452 32.954675 -1.318467 3.453491 49.729873 -1.605315 14.496996 -13.966180 25.600979 -4.461663 3.533445 7.348051 13.192527 
0.061602 -0.131138 0.984191 144.521668 -0.179847 87.134105 -2.780090 0.268180 2.986684 -2.412062 -3.865100 2.222720 7.986770 13.147858 -10.836211 0.000000 -0.000000 0.000000 -9.396723 -3.317819 -6.982983 -8.073627 -4.315171 47.564779 5.308095 -13.626135 6.961192 0.000000 -0.000000 0.000000 -3.390020 3.264434 3.023681 1.269975 -0.047877 14.569784 -3.193402 1.410970 -4.628280 3.381559 4.856187 10.085332 3.919082 3.696561 18.993452 -30.762418 1.164304 -4.048300 -49.634168 -7.665580 15.024994 10.036795 -27.880609 -1.247081 -2.027725 -6.918200 12.381378 32.498056 -0.401258 2.850455 49.683639 -0.729810 14.216085 -13.296104 25.290803 -5.015420 3.416572 8.502783 14.496624 
0.060571 -0.120074 0.984266 147.555824 -0.283220 86.549108 -3.335564 -0.303603 4.028773 -2.797667 -7.959286 2.076302 8.581372 15.632624 -11.382125 0.000000 -0.000000 0.000000 -8.545241 -3.652418 -9.278494 -7.105698 -1.981142 51.590213 2.231968 -15.583127 9.779507 0.000000 -0.000000 0.000000 -4.172705 2.667173 3.693498 1.316100 -0.513472 15.944681 -2.648485 3.245185 -6.195523 1.683146 2.483374 12.675798 6.307067 6.132804 18.546885 -32.915575 0.307133 -3.525574 -47.192783 -7.115926 15.916878 9.732955 -25.975492 -2.756295 3.392136 -6.064354 14.613863 33.634758 -2.208777 5.069667 46.628534 1.661444 7.213100 -9.378000 27.769956 -4.403983 -0.176008 7.736153 21.123867 
0.061911 -0.111118 0.984400 149.792004 -0.072014 86.195691 -3.424640 -1.271156 4.946102 -2.695895 -9.024856 2.126869 8.754217 15.795639 -11.744136 0.000000 -0.000000 0.000000 -7.381743 -2.332881 -11.102948 -5.192602 -0.851864 54.036085 2.682551 -13.202180 4.515652 0.000000 -0.000000 0.000000 -4.087179 2.423146 4.607009 1.120397 -0.287325 15.682087 -2.590848 3.153969 -6.019583 1.709686 2.928981 13.953148 7.530217 7.229296 19.130701 -33.087878 0.894123 -3.487235 -46.309358 -6.897798 15.279743 9.652813 -24.400063 -2.824882 1.874040 -5.971992 14.557927 33.539688 -2.583899 5.900626 46.667288 3.420835 6.789316 -9.608647 28.444799 -4.802039 0.396928 7.973777 21.287312 
0.065028 -0.099284 0.985347 152.585811 0.302631 85.551901 -3.040825 -1.161716 6.294147 -2.892744 -11.586894 2.177757 8.553615 15.822914 -12.191910 0.000000 -0.000000 0.000000 -5.702282 -0.571814 -12.812360 -2.945358 -0.185306 54.339588 4.582363 -11.412444 -1.364561 0.000000 -0.000000 0.000000 -3.832169 1.724290 6.366215 0.765792 0.045747 14.909641 -2.623843 3.232755 -5.639767 1.729014 3.228563 14.903955 8.843748 7.802805 19.137602 -33.110042 1.504561 -3.311344 -45.112695 -6.902357 14.427382 8.678895 -22.332461 -3.348184 3.967647 -6.542126 14.077807 33.640715 -2.620675 6.929275 46.515121 4.807173 5.983719 -9.520883 29.568765 -5.391546 -2.123413 9.494582 20.364687 
0.064855 -0.090646 0.985057 154.159120 -0.235363 86.147952 -4.383642 -2.746568 6.050791 -2.334393 -12.205294 2.385159 8.712322 16.669239 -12.307113 0.000000 -0.000000 0.000000 -5.152814 0.959384 -15.642812 -1.831606 1.440110 53.006434 4.753679 -10.928468 -4.690147 0.000000 -0.000000 0.000000 -4.104292 1.492269 6.469690 0.381091 0.431425 15.179735 -2.721915 3.231370 -5.698720 0.537165 2.715522 14.930599 10.158259 8.695653 19.296280 -33.401531 1.483111 -3.616911 -44.194545 -6.305695 14.228343 8.511182 -20.888343 -4.396997 5.386524 -6.202391 13.829098 33.103175 -2.880341 6.266974 46.844502 5.521319 6.188642 -8.902151 30.098106 -5.132839 -2.970187 9.968740 20.498805 
0.066481 -0.082411 0.984853 156.029453 -0.334275 86.003956 -4.573609 -2.305804 6.334200 -2.286455 -13.919061 3.078335 8.340731 16.207509 -12.974180 0.000000 -0.000000 0.000000 -4.156924 2.282340 -17.311012 -2.148983 2.299223 50.307036 3.979285 -11.461623 -6.966457 0.000000 -0.000000 0.000000 -4.372602 0.839981 7.263810 0.029510 0.609047 16.023031 -2.584957 3.740043 -5.765305 0.593852 2.895557 14.495302 10.313202 8.512555 18.620560 -33.413956 0.711767 -2.978136 -43.744555 -5.870228 13.459134 9.009742 -20.189605 -5.585838 6.264988 -6.248503 13.686971 33.077744 -1.544703 8.015331 46.592401 5.633014 5.514430 -9.573112 32.058854 -5.124955 -3.742742 10.632503 19.628600 
0.069943 -0.073321 0.985870 157.608049 -0.428206 85.708108 -4.747197 -2.640621 7.132089 -2.365208 -15.729504 3.437685 8.052147 16.997910 -13.175983 0.000000 -0.000000 0.000000 -2.992722 4.147874 -17.953800 -2.269184 3.975236 45.730837 3.315091 -13.515199 -8.065726 0.000000 -0.000000 0.000000 -3.756589 0.365699 9.062618 -0.771275 0.805753 14.608196 -3.178388 3.620355 -4.285910 0.430651 2.769408 15.147995 10.218279 9.061220 16.222561 -32.666351 0.258619 -3.512493 -43.591533 -5.130620 13.207663 9.409895 -19.185260 -5.549256 4.140461 -6.051620 12.870924 33.028418 0.641809 2.765365 47.629757 1.130105 8.201219 -10.609814 33.142398 -4.887969 -0.904738 9.439389 17.918245 
0.071795 -0.065607 0.984774 159.099219 -1.118882 85.653569 -5.791589 -3.183671 7.178765 -2.146526 -15.601269 4.384922 8.328167 16.351752 -14.359530 0.000000 -0.000000 0.000000 -2.711933 5.173367 -19.420760 -3.109565 5.623011 41.473473 3.261404 -12.690783 -9.351912 0.000000 -0.000000 0.000000 -4.865799 0.124479 10.326016 -0.724565 0.691584 15.709453 -2.654666 3.563411 -5.311768 -0.750374 2.563343 13.696659 10.603818 8.690566 18.138634 -33.907095 0.381010 -3.012342 -42.389729 -5.212634 13.259777 9.592579 -18.676323 -7.553425 10.368757 -7.065179 14.390889 33.468511 -0.985805 7.504989 45.412457 5.677746 6.337898 -9.213734 34.891931 -4.528322 -5.364566 11.847465 19.148912 
0.075198 -0.057789 0.984113 160.923417 -0.918445 85.728193 -5.520502 -3.512293 7.168112 -2.318672 -16.055359 5.321013 8.101959 15.849468 -15.365965 0.000000 -0.000000 0.000000 -1.871375 6.890605 -20.180382 -2.702031 7.626412 36.192781 3.219855 -11.467079 -9.396747 0.000000 -0.000000 0.000000 -4.314867 -0.388649 11.401403 -0.825768 0.332732 16.568756 -2.918577 3.238918 -5.831536 -1.390674 1.897788 13.530947 9.984200 8.261580 18.294124 -33.977350 0.486561 -2.614246 -42.268592 -5.128945 13.057297 10.098590 -18.941493 -8.076375 5.495301 -6.357638 14.151251 33.253038 -1.021249 7.538387 45.050283 5.626035 6.374774 -9.262215 37.052315 -4.216647 -3.496299 11.621437 19.917767 
0.078026 -0.048876 0.983083 162.756795 -0.806905 86.433471 -5.222207 -3.765388 6.400812 -2.599850 -16.449348 6.454378 7.697196 14.990042 -16.523426 0.000000 -0.000000 0.000000 -1.893758 7.813088 -21.555652 -1.805954 9.915844 30.848273 3.956435 -8.399679 -8.571629 0.000000 -0.000000 0.000000 -3.346052 -0.954914 11.799568 -0.944242 -0.033619 16.944142 -3.313836 2.571363 -5.726103 -2.417654 1.606466 13.743318 9.494243 7.679517 18.632888 -34.301577 0.613885 -2.854208 -42.024931 -4.820518 12.964411 10.251841 -19.189340 -8.545585 5.629189 -6.676502 14.072342 32.504723 -1.560767 7.003116 45.148723 6.115744 6.090596 -7.630943 38.746688 -3.141771 -3.551113 12.768305 21.155969 
0.082043 -0.038284 0.983297 164.413943 -0.442266 87.259694 -4.306861 -3.417512 6.003488 -3.210226 -18.045578 7.017756 7.086949 14.400662 -17.042060 0.000000 -0.000000 0.000000 -1.816569 8.098335 -22.016380 -1.246103 12.360190 24.581442 4.346192 -7.008293 -7.567617 0.000000 -0.000000 0.000000 -1.817467 -1.423160 11.325280 -1.003099 -0.612011 17.654200 -4.027531 2.462200 -5.126739 -2.543003 1.721761 14.755363 8.381391 6.973513 16.967090 -33.919881 -0.181376 -2.665387 -42.969699 -4.079515 12.672404 11.196851 -19.965653 -8.106283 6.716471 -7.445120 12.423311 31.542146 0.826089 3.418140 46.530509 1.401775 7.603792 -8.923065 40.789136 -3.281473 -4.239836 13.816237 18.288044 
